<?xml version="1.0" standalone="no"?>
<!DOCTYPE svg PUBLIC "-//W3C//DTD SVG 20010904//EN"
 "http://www.w3.org/TR/2001/REC-SVG-20010904/DTD/svg10.dtd">
<svg version="1.0" xmlns="http://www.w3.org/2000/svg"
 width="70.000000pt" height="70.000000pt" viewBox="0 0 70.000000 70.000000"
 preserveAspectRatio="xMidYMid meet">
<metadata>
Created by potrace 1.11, written by Peter Selinger 2001-2013
</metadata>
<g transform="translate(0.000000,70.000000) scale(0.100000,-0.100000)"
fill="#000000" stroke="none">
<path d="M289 566 c-2 -2 -26 -7 -53 -10 -54 -8 -100 -25 -131 -50 -17 -14
-15 -14 20 1 29 12 69 17 145 17 139 1 167 -7 267 -72 39 -26 56 -45 72 -82
12 -27 21 -57 21 -67 0 -35 -20 -89 -40 -111 -33 -35 -5 -26 34 12 20 18 36
41 36 50 0 10 5 14 10 11 10 -6 11 -2 15 65 5 97 -104 199 -240 225 -45 9
-151 16 -156 11z"/>
<path d="M275 482 l-31 -3 1 -147 0 -147 35 -3 35 -3 -1 66 c-2 74 1 74 44 -5
28 -51 33 -55 71 -58 23 -2 41 0 41 4 0 4 -10 21 -23 38 -13 17 -33 47 -44 68
l-21 36 29 12 c40 17 53 84 22 117 -6 7 -16 13 -22 13 -6 0 -11 3 -11 8 0 7
-69 10 -125 4z m97 -46 c12 -18 9 -73 -4 -84 -7 -5 -22 -12 -33 -14 -18 -3
-20 3 -20 52 -1 30 3 58 9 62 11 7 38 -1 48 -16z"/>
</g>
</svg>
