<svg width="166" height="32" viewBox="0 0 166 32" fill="none" xmlns="http://www.w3.org/2000/svg">
<rect width="166" height="32" rx="2" fill="#E4E4E4"/>
<path d="M72.3352 11.2727H70.7926V20H72.3352V11.2727ZM76.7766 20.1278C78.6942 20.1278 79.913 18.777 79.913 16.7528C79.913 14.7244 78.6942 13.3693 76.7766 13.3693C74.859 13.3693 73.6403 14.7244 73.6403 16.7528C73.6403 18.777 74.859 20.1278 76.7766 20.1278ZM76.7852 18.892C75.7241 18.892 75.2042 17.946 75.2042 16.7486C75.2042 15.5511 75.7241 14.5923 76.7852 14.5923C77.8292 14.5923 78.3491 15.5511 78.3491 16.7486C78.3491 17.946 77.8292 18.892 76.7852 18.892ZM84.0689 22.5909C85.8374 22.5909 87.1413 21.7812 87.1413 20.1065V13.4545H85.62V14.5369H85.5348C85.3004 14.0639 84.8104 13.3693 83.6555 13.3693C82.1428 13.3693 80.9538 14.554 80.9538 16.706C80.9538 18.8409 82.1428 19.9062 83.6513 19.9062C84.772 19.9062 85.2962 19.3054 85.5348 18.8239H85.6115V20.0639C85.6115 21.027 84.9723 21.4233 84.0945 21.4233C83.1655 21.4233 82.7564 20.9844 82.5689 20.6009L81.1797 20.9375C81.4609 21.8537 82.4027 22.5909 84.0689 22.5909ZM84.0817 18.696C83.0632 18.696 82.5263 17.9034 82.5263 16.6974C82.5263 15.5085 83.0547 14.6349 84.0817 14.6349C85.0746 14.6349 85.62 15.4574 85.62 16.6974C85.62 17.946 85.0661 18.696 84.0817 18.696ZM91.5774 20.1278C93.495 20.1278 94.7138 18.777 94.7138 16.7528C94.7138 14.7244 93.495 13.3693 91.5774 13.3693C89.6598 13.3693 88.4411 14.7244 88.4411 16.7528C88.4411 18.777 89.6598 20.1278 91.5774 20.1278ZM91.5859 18.892C90.5249 18.892 90.005 17.946 90.005 16.7486C90.005 15.5511 90.5249 14.5923 91.5859 14.5923C92.63 14.5923 93.1499 15.5511 93.1499 16.7486C93.1499 17.946 92.63 18.892 91.5859 18.892Z" fill="white"/>
</svg>
