<svg width="20" height="20" viewBox="0 0 20 20" fill="none" xmlns="http://www.w3.org/2000/svg">
<g clip-path="url(#clip0)">
<path d="M9.99978 4.99066C7.2376 4.99066 4.99048 7.23823 4.99048 10.0004C4.99048 12.7626 7.2376 15.0101 9.99978 15.0101C12.7615 15.0101 15.0091 12.763 15.0091 10.0004C15.0091 7.23778 12.7615 4.99066 9.99978 4.99066Z" fill="#C7C7C7"/>
<path d="M9.99988 3.51816C9.46002 3.51816 9.02246 3.0806 9.02246 2.54119V0.977414C9.02246 0.437555 9.46002 0 9.99988 0C10.5397 0 10.9773 0.437555 10.9773 0.977414V2.54119C10.9773 3.0806 10.5393 3.51816 9.99988 3.51816Z" fill="#C7C7C7"/>
<path d="M9.99988 16.4814C9.46002 16.4814 9.02246 16.919 9.02246 17.4588V19.0222C9.02246 19.5625 9.46002 20 9.99988 20C10.5397 20 10.9773 19.5625 10.9773 19.0222V17.4588C10.9773 16.919 10.5393 16.4814 9.99988 16.4814Z" fill="#C7C7C7"/>
<path d="M14.5829 5.41673C14.2015 5.03497 14.2015 4.41628 14.5829 4.03453L15.6887 2.92868C16.07 2.54737 16.6891 2.54737 17.0709 2.92868C17.4527 3.31044 17.4527 3.92957 17.0709 4.31088L15.9651 5.41673C15.5837 5.79848 14.9651 5.79848 14.5829 5.41673Z" fill="#C7C7C7"/>
<path d="M5.41677 14.5837C5.03502 14.2015 4.41633 14.2015 4.03457 14.5837L2.92873 15.6891C2.54742 16.0704 2.54697 16.69 2.92873 17.0713C3.31048 17.4526 3.92961 17.4526 4.31092 17.0713L5.41677 15.965C5.79852 15.5837 5.79852 14.9646 5.41677 14.5837Z" fill="#C7C7C7"/>
<path d="M16.4812 10C16.4812 9.46017 16.9188 9.02261 17.4586 9.02261H19.0224C19.5622 9.02261 19.9998 9.46017 19.9998 10C19.9998 10.5399 19.5622 10.977 19.0224 10.977H17.4586C16.9188 10.977 16.4812 10.5399 16.4812 10Z" fill="#C7C7C7"/>
<path d="M3.51816 10C3.51816 9.46017 3.0806 9.02261 2.54074 9.02261H0.977414C0.437555 9.02261 0 9.46017 0 10C0 10.5399 0.437555 10.977 0.977414 10.977H2.54119C3.0806 10.977 3.51816 10.5399 3.51816 10Z" fill="#C7C7C7"/>
<path d="M14.5829 14.5837C14.9647 14.2024 15.5838 14.2024 15.9651 14.5837L17.071 15.6896C17.4527 16.0704 17.4527 16.69 17.071 17.0713C16.6892 17.4526 16.0705 17.4526 15.6888 17.0713L14.5829 15.9655C14.2012 15.5837 14.2012 14.965 14.5829 14.5837Z" fill="#C7C7C7"/>
<path d="M5.41657 5.41674C5.79832 5.03499 5.79832 4.4163 5.41657 4.03454L4.31072 2.92914C3.92897 2.54738 3.31028 2.54738 2.92853 2.92914C2.54677 3.31045 2.54677 3.92958 2.92853 4.31089L4.03437 5.41674C4.41613 5.79894 5.03482 5.79894 5.41657 5.41674Z" fill="#C7C7C7"/>
</g>
<defs>
<clipPath id="clip0">
<rect width="20" height="20" fill="white"/>
</clipPath>
</defs>
</svg>
