<svg width="2353" height="402" viewBox="0 0 2353 402" fill="none" xmlns="http://www.w3.org/2000/svg">
<path d="M867.9 330.298L810.198 232.59C837.895 226.051 866.361 201.816 866.361 156.424C866.361 108.725 833.664 73.719 780.194 73.719H660.175V330.298H714.799V239.13H754.805L805.198 330.298H867.9ZM772.115 191.045H714.799V121.804H772.115C794.042 121.804 810.583 134.883 810.583 156.424C810.583 177.966 794.042 191.045 772.115 191.045Z" fill="black"/>
<path d="M1273.57 330.298L1174.71 73.719H1106.24L1006.99 330.298H1069.31L1085.46 286.83H1195.48L1211.25 330.298H1273.57ZM1180.48 238.745H1100.47L1140.47 128.343L1180.48 238.745Z" fill="black"/>
<path d="M1478.83 330.298V73.719H1424.21V330.298H1478.83Z" fill="black"/>
<path d="M1934.83 330.298V73.719H1857.9L1795.58 228.744L1733.26 73.719H1656.71V330.298H1711.34V150.654L1783.66 330.298H1807.51L1879.82 150.654V330.298H1934.83Z" fill="black"/>
<path d="M2352 330.298L2253.14 73.719H2184.67L2085.42 330.298H2147.74L2163.9 286.83H2273.91L2289.68 330.298H2352ZM2258.91 238.745H2178.9L2218.9 128.343L2258.91 238.745Z" fill="black"/>
<rect width="401.561" height="401.561" rx="12" fill="#DA465C"/>
<rect x="164.079" y="90.6749" width="73.4036" height="69.3256" fill="white"/>
<rect x="90.6719" y="159.761" width="73.4036" height="146.807" fill="white"/>
<rect x="237.479" y="159.761" width="73.4036" height="69.3256" fill="white"/>
</svg>
