<?xml version="1.0" encoding="utf-8"?>
<!-- Generator: Adobe Illustrator 27.2.0, SVG Export Plug-In . SVG Version: 6.00 Build 0)  -->
<svg version="1.1" id="Layer_1" xmlns="http://www.w3.org/2000/svg" xmlns:xlink="http://www.w3.org/1999/xlink" x="0px" y="0px"
	 viewBox="0 0 2353 703" style="enable-background:new 0 0 2353 703;" xml:space="preserve">
<style type="text/css">
	.st0{font-family:'Manrope-Bold';}
	.st1{font-size:213.044px;}
	.st2{fill:#DA465C;}
	.st3{fill:#FFFFFF;}
</style>
<text transform="matrix(1 0 0 1 239.2769 601.2002)" fill="#FFFFFF" class="st0 st1">CONTROL CENTER</text>
<path fill="#FFFFFF" d="M931,325.3l-46-77.9c22.1-5.2,44.8-24.5,44.8-60.7c0-38-26.1-65.9-68.7-65.9h-95.7v204.5h43.5v-72.7h31.9l40.2,72.7H931z
	 M854.6,214.4h-45.7v-55.2h45.7c17.5,0,30.7,10.4,30.7,27.6C885.3,203.9,872.1,214.4,854.6,214.4z"/>
<path fill="#FFFFFF" d="M1254.3,325.3l-78.8-204.5h-54.6l-79.1,204.5h49.7l12.9-34.6h87.7l12.6,34.6H1254.3z M1180.1,252.4h-63.8l31.9-88
	L1180.1,252.4z"/>
<path fill="#FFFFFF" d="M1417.8,325.3V120.9h-43.5v204.5H1417.8z"/>
<path fill="#FFFFFF" d="M1781.3,325.3V120.9h-61.3l-49.7,123.5l-49.7-123.5h-61v204.5h43.5V182.2l57.6,143.2h19l57.6-143.2v143.2H1781.3z"/>
<path fill="#FFFFFF" d="M2113.7,325.3l-78.8-204.5h-54.6l-79.1,204.5h49.7l12.9-34.6h87.7l12.6,34.6H2113.7z M2039.5,252.4h-63.8l31.9-88
	L2039.5,252.4z"/>
<path fill="#FFFFFF" class="st2" d="M248.8,62.1h300.9c5.3,0,9.6,4.3,9.6,9.6v300.9c0,5.3-4.3,9.6-9.6,9.6H248.8c-5.3,0-9.6-4.3-9.6-9.6V71.7
	C239.3,66.4,243.6,62.1,248.8,62.1z"/>
<rect x="370" y="134.4" class="st3" width="58.5" height="55.2"/>
<rect x="311.5" y="189.4" class="st3" width="58.5" height="117"/>
<rect x="428.5" y="189.4" class="st3" width="58.5" height="55.2"/>
</svg>
