<?xml version="1.0" encoding="utf-8"?>
<!-- Generator: Adobe Illustrator 27.2.0, SVG Export Plug-In . SVG Version: 6.00 Build 0)  -->
<svg version="1.1" id="Layer_1" xmlns="http://www.w3.org/2000/svg" xmlns:xlink="http://www.w3.org/1999/xlink" x="0px" y="0px"
	 viewBox="0 0 4029.7 703" style="enable-background:new 0 0 4029.7 703;" xml:space="preserve">
<style type="text/css">
	.st0{font-family:'Manrope-Bold';}
	.st1{font-size:213.044px;}
	.st2{fill:#DA465C;}
	.st3{fill:#FFFFFF;}
</style>
<text transform="matrix(1 0 0 1 2089.54 444.6158)" fill="#FFFFFF" class="st0 st1">CONTROL CENTER</text>
<path fill="#FFFFFF" d="M810.5,454.7l-46-77.9c22.1-5.2,44.8-24.5,44.8-60.7c0-38-26.1-65.9-68.7-65.9H645v204.5h43.5v-72.7h31.9l40.2,72.7H810.5z
	 M734.2,343.8h-45.7v-55.2h45.7c17.5,0,30.7,10.4,30.7,27.6C764.8,333.3,751.6,343.8,734.2,343.8z"/>
<path fill="#FFFFFF" d="M1133.8,454.7L1055,250.3h-54.6l-79.1,204.5H971l12.9-34.6h87.7l12.6,34.6H1133.8z M1059.6,381.8h-63.8l31.9-88
	L1059.6,381.8z"/>
<path fill="#FFFFFF" d="M1297.4,454.7V250.3h-43.5v204.5H1297.4z"/>
<path fill="#FFFFFF" d="M1660.8,454.7V250.3h-61.3l-49.7,123.5l-49.7-123.5h-61v204.5h43.5V311.6l57.6,143.2h19l57.6-143.2v143.2H1660.8z"/>
<path fill="#FFFFFF" d="M1993.3,454.7l-78.8-204.5h-54.6l-79.1,204.5h49.7l12.9-34.6h87.7l12.6,34.6H1993.3z M1919.1,381.8h-63.8l31.9-88
	L1919.1,381.8z"/>
<path fill="#FFFFFF" class="st2" d="M128.4,191.5h300.9c5.3,0,9.6,4.3,9.6,9.6V502c0,5.3-4.3,9.6-9.6,9.6H128.4c-5.3,0-9.6-4.3-9.6-9.6V201.1
	C118.8,195.8,123.1,191.5,128.4,191.5z"/>
<rect x="249.6" y="263.8" class="st3" width="58.5" height="55.2"/>
<rect x="191.1" y="318.8" class="st3" width="58.5" height="117"/>
<rect x="308.1" y="318.8" class="st3" width="58.5" height="55.2"/>
</svg>
